<svg xmlns="http://www.w3.org/2000/svg" xmlns:xlink="http://www.w3.org/1999/xlink" id="Layer_1" x="0px" y="0px" viewBox="0 0 507.5 49.6" style="enable-background:new 0 0 507.5 49.6;" xml:space="preserve"><style type="text/css">	.st0{fill:#FFFFFF;}</style><g>	<g>		<g>			<path class="st0" d="M214,36.2c0-0.8,0.2-1.5,0.7-2s1.2-0.8,2.1-0.8s1.7,0.3,2.2,0.8s0.7,1.2,0.7,2s-0.2,1.4-0.7,1.9    s-1.2,0.8-2.2,0.8s-1.7-0.3-2.1-0.8C214.3,37.6,214,37,214,36.2z"></path>		</g>		<g>			<path class="st0" d="M4.9,34.7h17.3v3.9H0V2h4.9V34.7z"></path>			<path class="st0" d="M25.7,24.8c0-2.7,0.5-5.1,1.6-7.2c1-2.1,2.5-3.8,4.4-4.9c1.9-1.1,4-1.7,6.4-1.7c3.7,0,6.7,1.3,9,3.8    s3.4,6,3.4,10.2v0.3c0,2.6-0.5,5-1.5,7.1s-2.5,3.7-4.3,4.9c-1.9,1.2-4.1,1.8-6.5,1.8c-3.7,0-6.7-1.3-9-3.8s-3.4-6-3.4-10.2v-0.3    H25.7z M30.4,25.3c0,3,0.7,5.4,2.1,7.3c1.4,1.8,3.3,2.7,5.6,2.7c2.4,0,4.2-0.9,5.6-2.8c1.4-1.9,2.1-4.4,2.1-7.8    c0-3-0.7-5.4-2.1-7.3c-1.4-1.9-3.3-2.8-5.6-2.8s-4.1,0.9-5.6,2.7C31.1,19.3,30.4,21.9,30.4,25.3z"></path>			<path class="st0" d="M60.7,11.4l0.2,3.4c2.1-2.6,4.8-3.9,8.1-3.9c5.7,0,8.6,3.2,8.7,9.7v18H73v-18c0-2-0.5-3.4-1.3-4.3    c-0.9-0.9-2.3-1.4-4.1-1.4c-1.5,0-2.8,0.4-4,1.2c-1.1,0.8-2,1.9-2.7,3.2v19.4h-4.7V11.4H60.7z"></path>			<path class="st0" d="M83.6,24.8c0-4.2,1-7.6,2.9-10.1c2-2.5,4.6-3.8,7.8-3.8c3.3,0,5.9,1.2,7.8,3.5l0.2-3h4.2V38    c0,3.5-1,6.3-3.1,8.3s-4.9,3-8.4,3c-2,0-3.9-0.4-5.8-1.3c-1.9-0.8-3.3-2-4.3-3.4l2.4-2.8c2,2.5,4.4,3.7,7.3,3.7    c2.3,0,4-0.6,5.3-1.9c1.3-1.3,1.9-3.1,1.9-5.4v-2.3c-1.9,2.1-4.4,3.2-7.6,3.2s-5.8-1.3-7.7-3.8C84.6,32.7,83.6,29.2,83.6,24.8z     M88.3,25.3c0,3.1,0.6,5.5,1.9,7.2c1.3,1.8,3,2.6,5.3,2.6c2.9,0,5.1-1.3,6.5-4V18.8c-1.4-2.6-3.6-3.9-6.4-3.9    c-2.3,0-4,0.9-5.3,2.6C89,19.3,88.3,21.9,88.3,25.3z"></path>			<path class="st0" d="M124.9,39.1c-3.7,0-6.7-1.2-9-3.6c-2.3-2.4-3.5-5.7-3.5-9.7v-0.9c0-2.7,0.5-5.1,1.5-7.2s2.5-3.8,4.3-5    c1.9-1.2,3.9-1.8,6-1.8c3.5,0,6.3,1.2,8.2,3.5c2,2.3,2.9,5.7,2.9,10v1.9h-18.4c0.1,2.7,0.9,4.8,2.4,6.5s3.4,2.5,5.7,2.5    c1.6,0,3-0.3,4.2-1c1.1-0.7,2.1-1.6,3-2.7l2.8,2.2C132.9,37.4,129.5,39.1,124.9,39.1z M124.3,14.7c-1.9,0-3.5,0.7-4.7,2    c-1.3,1.4-2.1,3.3-2.4,5.7h13.6V22c-0.1-2.4-0.8-4.2-1.9-5.5C127.8,15.4,126.3,14.7,124.3,14.7z"></path>			<path class="st0" d="M149.6,32.3l6.7-20.9h4.8l-9.8,27.2h-3.5l-9.9-27.2h4.8L149.6,32.3z"></path>			<path class="st0" d="M165.6,4.2c0-0.8,0.2-1.4,0.7-1.9s1.1-0.8,2-0.8s1.6,0.3,2.1,0.8s0.7,1.2,0.7,1.9s-0.2,1.4-0.7,1.9    s-1.2,0.8-2.1,0.8s-1.6-0.3-2-0.8C165.8,5.6,165.6,5,165.6,4.2z M170.6,38.6h-4.7V11.4h4.7V38.6z"></path>			<path class="st0" d="M184.3,4.8v6.6h5.1V15h-5.1v16.9c0,1.1,0.2,1.9,0.7,2.5c0.5,0.5,1.2,0.8,2.3,0.8c0.5,0,1.3-0.1,2.2-0.3v3.7    c-1.2,0.3-2.4,0.5-3.6,0.5c-2.1,0-3.6-0.6-4.7-1.9c-1.1-1.3-1.6-3-1.6-5.4V15h-5v-3.6h5V4.8H184.3z"></path>			<path class="st0" d="M203.7,31.8l6.3-20.4h5l-10.9,31.4c-1.7,4.5-4.4,6.8-8.1,6.8l-0.9-0.1l-1.7-0.3v-3.8l1.3,0.1    c1.6,0,2.8-0.3,3.7-1c0.9-0.6,1.6-1.8,2.2-3.5l1-2.8l-9.7-26.9h5.1L203.7,31.8z"></path>			<path class="st0" d="M246.5,8.1h-11.2v30.5h-7.5V8.1h-11.1V2h29.8V8.1z"></path>			<path class="st0" d="M260.6,39.1c-4,0-7.2-1.2-9.7-3.7c-2.5-2.4-3.8-5.7-3.8-9.8V25c0-2.7,0.5-5.2,1.6-7.3c1.1-2.2,2.6-3.8,4.5-5    s4.1-1.7,6.6-1.7c3.7,0,6.6,1.2,8.8,3.5c2.1,2.3,3.2,5.7,3.2,10v3h-17.3c0.2,1.8,0.9,3.2,2.1,4.3c1.2,1.1,2.7,1.6,4.5,1.6    c2.8,0,5-1,6.6-3l3.6,4c-1.1,1.5-2.6,2.7-4.4,3.6C264.9,38.7,262.9,39.1,260.6,39.1z M259.8,16.8c-1.4,0-2.6,0.5-3.5,1.5    s-1.5,2.4-1.7,4.2h10.1v-0.6c0-1.6-0.5-2.9-1.3-3.7C262.5,17.2,261.3,16.8,259.8,16.8z"></path>			<path class="st0" d="M287.2,33.3c1.3,0,2.4-0.4,3.3-1.1s1.3-1.7,1.3-2.9h6.8c0,1.8-0.5,3.5-1.5,5.1c-1,1.5-2.3,2.7-4.1,3.6    c-1.7,0.8-3.6,1.3-5.7,1.3c-3.9,0-7-1.2-9.2-3.7s-3.4-5.9-3.4-10.2v-0.5c0-4.2,1.1-7.5,3.3-10c2.2-2.5,5.3-3.7,9.2-3.7    c3.4,0,6.1,1,8.2,2.9s3.1,4.5,3.1,7.7h-6.8c0-1.4-0.5-2.6-1.3-3.4c-0.8-0.9-1.9-1.3-3.3-1.3c-1.7,0-3,0.6-3.8,1.9    c-0.9,1.2-1.3,3.2-1.3,6v0.8c0,2.8,0.4,4.8,1.3,6C284.2,32.7,285.5,33.3,287.2,33.3z"></path>			<path class="st0" d="M309.9,14.4c1.9-2.3,4.3-3.5,7.3-3.5c5.9,0,8.9,3.4,9,10.3v17.4h-7.3V21.4c0-1.6-0.3-2.7-1-3.5    c-0.7-0.7-1.8-1.1-3.3-1.1c-2.1,0-3.7,0.8-4.6,2.5v19.3h-7.3V0h7.3v14.4H309.9z"></path>			<path class="st0" d="M338.3,11.4l0.2,3.1c1.9-2.4,4.6-3.6,7.8-3.6c2.9,0,5,0.8,6.4,2.5s2.1,4.2,2.2,7.6v17.6h-7.3V21.2    c0-1.5-0.3-2.7-1-3.4c-0.7-0.7-1.8-1-3.3-1c-2,0-3.6,0.9-4.6,2.6v19.2h-7.3V11.4H338.3z"></path>			<path class="st0" d="M359.3,24.8c0-2.7,0.5-5.1,1.6-7.2c1-2.1,2.5-3.7,4.5-4.9s4.2-1.7,6.8-1.7c3.7,0,6.7,1.1,9,3.4    c2.3,2.2,3.6,5.3,3.9,9.2v1.9c0,4.2-1.2,7.5-3.5,10s-5.5,3.8-9.4,3.8s-7.1-1.3-9.4-3.8s-3.5-5.9-3.5-10.3V24.8z M366.6,25.3    c0,2.6,0.5,4.6,1.5,5.9c1,1.4,2.4,2.1,4.2,2.1c1.8,0,3.1-0.7,4.1-2s1.5-3.5,1.5-6.5c0-2.5-0.5-4.5-1.5-5.9s-2.4-2.1-4.2-2.1    c-1.8,0-3.2,0.7-4.1,2.1C367,20.2,366.6,22.4,366.6,25.3z"></path>			<path class="st0" d="M397.2,38.6h-7.3V0h7.3V38.6z"></path>			<path class="st0" d="M402.1,24.8c0-2.7,0.5-5.1,1.6-7.2c1-2.1,2.5-3.7,4.5-4.9s4.2-1.7,6.8-1.7c3.7,0,6.7,1.1,9,3.4    c2.3,2.2,3.6,5.3,3.9,9.2v1.9c0,4.2-1.2,7.5-3.5,10s-5.5,3.8-9.4,3.8s-7.1-1.3-9.4-3.8s-3.5-5.9-3.5-10.3V24.8z M409.3,25.3    c0,2.6,0.5,4.6,1.5,5.9c1,1.4,2.4,2.1,4.2,2.1c1.8,0,3.1-0.7,4.1-2s1.5-3.5,1.5-6.5c0-2.5-0.5-4.5-1.5-5.9s-2.4-2.1-4.2-2.1    c-1.8,0-3.2,0.7-4.1,2.1C409.8,20.2,409.3,22.4,409.3,25.3z"></path>			<path class="st0" d="M431.2,24.8c0-4.2,1-7.5,3-10.1c2-2.5,4.7-3.8,8-3.8c3,0,5.3,1,7,3.1l0.3-2.6h6.6v26.3    c0,2.4-0.5,4.4-1.6,6.2s-2.6,3.1-4.6,4s-4.3,1.4-6.9,1.4c-2,0-3.9-0.4-5.8-1.2s-3.3-1.8-4.3-3.1l3.2-4.4c1.8,2,4,3,6.6,3    c1.9,0,3.4-0.5,4.5-1.5s1.6-2.5,1.6-4.4v-1.5c-1.7,1.9-3.9,2.8-6.6,2.8c-3.3,0-5.9-1.3-7.9-3.8c-2-2.6-3-5.9-3-10.2v-0.2H431.2z     M438.5,25.4c0,2.5,0.5,4.4,1.5,5.8s2.3,2.1,4.1,2.1c2.2,0,3.8-0.8,4.8-2.5V19.3c-1-1.7-2.5-2.5-4.7-2.5c-1.7,0-3.1,0.7-4.1,2.1    S438.5,22.5,438.5,25.4z"></path>			<path class="st0" d="M471.8,28.3l5-16.9h7.8l-10.9,31.4l-0.6,1.4c-1.6,3.6-4.3,5.3-8,5.3c-1.1,0-2.1-0.2-3.2-0.5v-5.5h1.1    c1.4,0,2.4-0.2,3.1-0.6c0.7-0.4,1.2-1.1,1.6-2.1l0.9-2.2L459,11.4h7.8L471.8,28.3z"></path>		</g>	</g>	<g>		<g>			<path class="st0" d="M498.6,1.2c4.2,0,7.7,3.4,7.7,7.7c0,4.2-3.4,7.7-7.7,7.7s-7.7-3.4-7.7-7.7C490.9,4.7,494.3,1.2,498.6,1.2     M498.6,0c-4.9,0-8.9,4-8.9,8.9s4,8.9,8.9,8.9s8.9-4,8.9-8.9S503.5,0,498.6,0L498.6,0z"></path>		</g>		<g>			<path class="st0" d="M499,9.7h-2v3.4h-1.1V4.7h2.8c1,0,1.7,0.2,2.2,0.7s0.8,1.1,0.8,1.9c0,0.5-0.1,1-0.4,1.4s-0.7,0.7-1.2,0.9    l2,3.6v0.1h-1.2L499,9.7z M497,8.8h1.7c0.6,0,1-0.1,1.3-0.4c0.3-0.3,0.5-0.7,0.5-1.2S500.3,6.3,500,6s-0.8-0.4-1.4-0.4H497V8.8z"></path>		</g>	</g></g></svg>